<svg xmlns="http://www.w3.org/2000/svg" width="48" height="48" fill="none">
    <path fill="#F8F8F8" d="M23.93 0c6.503 0 7.314.024 9.865.144 2.548.12 4.283.519 5.81 1.112 1.58.608 2.91 1.431 4.24 2.76a11.745 11.745 0 0 1 2.76 4.24c.591 1.524.993 3.262 1.113 5.81.112 2.551.143 3.363.143 9.865 0 6.502-.024 7.313-.143 9.864-.12 2.548-.522 4.283-1.113 5.81a11.684 11.684 0 0 1-2.76 4.24 11.762 11.762 0 0 1-4.24 2.76c-1.524.591-3.261.993-5.81 1.113-2.551.112-3.362.143-9.864.143-6.502 0-7.314-.024-9.865-.143-2.548-.12-4.283-.522-5.81-1.113a11.702 11.702 0 0 1-4.24-2.76 11.736 11.736 0 0 1-2.76-4.24c-.593-1.524-.993-3.261-1.112-5.81C.03 31.244 0 30.433 0 23.93c0-6.502.024-7.314.144-9.865.12-2.55.519-4.283 1.112-5.81a11.678 11.678 0 0 1 2.76-4.24 11.719 11.719 0 0 1 4.24-2.76c1.527-.593 3.26-.993 5.81-1.112C16.617.03 17.43 0 23.931 0Zm0 11.965a11.965 11.965 0 1 0 0 23.93 11.965 11.965 0 0 0 0-23.93Zm15.556-.598a2.991 2.991 0 1 0-5.983 0 2.991 2.991 0 0 0 5.983 0ZM23.93 16.751a7.18 7.18 0 1 1 0 14.359 7.18 7.18 0 0 1 0-14.359Z"/>
</svg>
