<svg width="45" height="45" viewBox="0 0 45 45" fill="none" xmlns="http://www.w3.org/2000/svg">
<circle cx="22.5" cy="22.5" r="21.9886" stroke="#007D8B" stroke-width="1.02273"/>
<path d="M22.5082 31.9482L22.3992 32.0572L22.2793 31.9482C17.1022 27.2507 13.6798 24.1444 13.6798 20.9946C13.6798 18.8147 15.3147 17.1798 17.4946 17.1798C19.173 17.1798 20.8079 18.2698 21.3856 19.752H23.4128C23.9905 18.2698 25.6253 17.1798 27.3038 17.1798C29.4837 17.1798 31.1185 18.8147 31.1185 20.9946C31.1185 24.1444 27.6962 27.2507 22.5082 31.9482ZM27.3038 15C25.4074 15 23.5872 15.8828 22.3992 17.267C21.2112 15.8828 19.391 15 17.4946 15C14.1376 15 11.5 17.6267 11.5 20.9946C11.5 25.1035 15.2057 28.4714 20.8188 33.5613L22.3992 35L23.9796 33.5613C29.5926 28.4714 33.2984 25.1035 33.2984 20.9946C33.2984 17.6267 30.6608 15 27.3038 15Z" fill="#007D8B"/>
</svg>
