<svg width="26" height="28" viewBox="0 0 26 28" fill="none"
    xmlns="http://www.w3.org/2000/svg">
    <path d="M12.5341 26.6085L11.1784 25.1311L11.1776 25.1302C7.93962 21.615 5.29622 18.7406 3.45525 16.0441C1.62284 13.3602 0.626703 10.9098 0.626703 8.25315C0.626703 3.85293 3.4796 0.626703 6.89373 0.626703C8.83945 0.626703 10.7554 1.71581 12.0247 3.48634L12.5341 4.19681L13.0434 3.48634C14.3127 1.71581 16.2287 0.626703 18.1744 0.626703C21.5885 0.626703 24.4414 3.85293 24.4414 8.25315C24.4414 10.9098 23.4453 13.3602 21.6129 16.0441C19.7719 18.7406 17.1285 21.615 13.8905 25.1302L13.8897 25.1311L12.5341 26.6085Z" fill="#FF4848" stroke="#FF4848" stroke-width="1.25341"/>
</svg>


<svg xmlns="http://www.w3.org/2000/svg" width="26" height="28" fill="none">
    <path fill="#FF4848" stroke="#FF4848" stroke-width="1.253" d="m12.534 26.608-1.356-1.477c-3.238-3.516-5.882-6.39-7.723-9.087C1.623 13.36.627 10.91.627 8.254.627 3.852 3.48.626 6.894.626c1.945 0 3.861 1.089 5.13 2.86l.51.71.51-.71c1.269-1.771 3.185-2.86 5.13-2.86 3.415 0 6.267 3.226 6.267 7.626 0 2.657-.996 5.107-2.828 7.791-1.841 2.697-4.485 5.571-7.723 9.086v.001l-1.356 1.477Z"/>
</svg>