<svg xmlns="http://www.w3.org/2000/svg" width="48" height="34" fill="none">
    <path fill="#F8F8F8" d="m19.145 24.428 12.42-7.18-12.42-7.179v14.359ZM46.808 5.69c.311 1.125.527 2.632.67 4.547.168 1.914.24 3.566.24 5.001l.143 2.01c0 5.241-.383 9.094-1.053 11.559-.598 2.154-1.986 3.542-4.14 4.14-1.124.311-3.182.526-6.341.67-3.111.168-5.959.24-8.591.24L23.93 34c-10.027 0-16.273-.383-18.738-1.053-2.154-.598-3.542-1.986-4.14-4.14-.311-1.125-.527-2.632-.67-4.547a57.58 57.58 0 0 1-.24-5.001L0 17.249C0 12.008.383 8.155 1.053 5.69c.598-2.154 1.986-3.542 4.14-4.14 1.125-.311 3.183-.526 6.342-.67 3.11-.168 5.958-.24 8.59-.24l3.806-.143c10.027 0 16.272.383 18.737 1.053 2.154.598 3.542 1.986 4.14 4.14Z"/>
</svg>