<svg xmlns="http://www.w3.org/2000/svg" width="45" height="45" fill="none">
    <circle cx="22.5" cy="22.5" r="21.989" stroke="#007D8B" stroke-width="1.023"/>
    <path fill="#007D8B" d="m22.508 31.948-.109.11-.12-.11c-5.177-4.697-8.6-7.804-8.6-10.953 0-2.18 1.636-3.815 3.816-3.815 1.678 0 3.313 1.09 3.89 2.572h2.028c.578-1.482 2.212-2.572 3.89-2.572 2.18 0 3.816 1.635 3.816 3.815 0 3.15-3.423 6.256-8.61 10.953ZM27.304 15c-1.897 0-3.717.883-4.905 2.267C21.211 15.883 19.391 15 17.495 15c-3.357 0-5.995 2.627-5.995 5.995 0 4.108 3.706 7.476 9.319 12.566L22.399 35l1.58-1.439c5.614-5.09 9.32-8.457 9.32-12.566 0-3.368-2.638-5.995-5.995-5.995Z"/>
</svg>
