<svg xmlns="http://www.w3.org/2000/svg" width="44" height="44" fill="none">
    <path fill="#121212" d="M44 22c0 12.15-9.85 22-22 22S0 34.15 0 22 9.85 0 22 0s22 9.85 22 22ZM2.548 22c0 10.743 8.709 19.452 19.452 19.452 10.743 0 19.452-8.709 19.452-19.452 0-10.743-8.709-19.452-19.452-19.452C11.257 2.548 2.548 11.257 2.548 22Z"/>
    <circle cx="22" cy="22" r="15.5" fill="#121212"/>
</svg>


<svg xmlns="http://www.w3.org/2000/svg" width="44" height="44" fill="none">
    <path fill="currentColor" d="M44 22c0 12.15-9.85 22-22 22S0 34.15 0 22 9.85 0 22 0s22 9.85 22 22ZM2.548 22c0 10.743 8.709 19.452 19.452 19.452 10.743 0 19.452-8.709 19.452-19.452 0-10.743-8.709-19.452-19.452-19.452C11.257 2.548 2.548 11.257 2.548 22Z"/>
    <circle cx="22" cy="22" r="15.5" fill="currentColor"/>
</svg>
